<!DOCTYPE svg PUBLIC "-//W3C//DTD SVG 1.1//EN" "http://www.w3.org/Graphics/SVG/1.1/DTD/svg11.dtd">
<!-- Uploaded to: SVG Repo, www.svgrepo.com, Transformed by: SVG Repo Mixer Tools -->
<svg width="800px" height="800px" viewBox="0 0 1024 1024" class="icon" version="1.1" xmlns="http://www.w3.org/2000/svg" fill="#000000" stroke="#000000">
<g id="SVGRepo_bgCarrier" stroke-width="0"/>
<g id="SVGRepo_tracerCarrier" stroke-linecap="round" stroke-linejoin="round"/>
<g id="SVGRepo_iconCarrier">
<path d="M278.343226 471.639464h141.910506v141.910506h-141.910506zM803.995712 553.406946c-34.646232-35.794007-91.921353-36.724719-127.686691-2.078487-17.333355 16.778409-27.09303 39.298767-27.479034 63.41229-0.282592 17.182844 4.414994 33.617227 13.095493 47.96698l-29.309741 28.372886-25.716928-26.567776c-7.790743-8.047739-20.63948-8.245349-28.667765-0.475083-8.047739 7.790743-8.255587 20.629242-0.475083 28.667765l25.726143 26.575967-19.206041 18.59171-41.66087-43.030828c-7.780505-8.047739-20.619003-8.236134-28.667765-0.455629-8.0375 7.780505-8.245349 20.619003-0.455629 28.667765l41.650631 43.018542-12.171949 11.781848c-8.047739 7.790743-8.255587 20.629242-0.475082 28.667765a20.235046 20.235046 0 0 0 14.570912 6.177101 20.221735 20.221735 0 0 0 14.095829-5.702018l26.740813-25.885869c0.005119-0.005119 0.011263-0.005119 0.016382-0.010238 0.005119-0.005119 0.005119-0.010239 0.010239-0.014335l48.307933-46.760843 0.008191-0.006143 0.006144-0.008191 43.876558-42.473835c14.063065 9.143296 30.335674 14.374326 47.523637 14.656919 0.494537 0.010239 1.000336 0.010239 1.505111 0.010238 23.559601 0 45.792247-8.997904 62.759051-25.420001 17.333355-16.778409 27.09303-39.298767 27.479035-63.412289 0.397268-24.116595-8.620091-46.943094-25.399524-64.266211z" fill="#e47c7c"/>
<path d="M927.079015 664.235366c0-73.15763-31.346249-138.975027-81.091718-185.274098v-64.864159l47.762203 40.222311a20.19921 20.19921 0 0 0 13.046347 4.761067 20.258595 20.258595 0 0 0 15.521078-7.216344c7.206105-8.562753 6.107476-21.352105-2.455278-28.568448L560.928408 121.031436c-22.836738-19.233686-55.869327-19.154847-78.56784 0.178157L339.162014 242.919865v-75.373318c0-33.537364-27.281424-60.818788-60.818788-60.818789s-60.818788 27.281424-60.818789 60.818789v178.762186l-114.490857 97.328492c-8.53306 7.246036-9.572304 20.045627-2.316028 28.568448 4.009535 4.722159 9.710528 7.14672 15.452477 7.14672 4.642296 0 9.30507-1.583951 13.115971-4.830691l47.692578-40.543812v387.874383c0 33.537364 27.281424 60.818788 60.818789 60.818788h308.03078c37.583759 22.083159 81.184891 34.974899 127.838226 34.974899 51.892556 0 100.157486-15.731998 140.375702-42.599773 5.329323-2.905787 10.285952-6.379829 14.503336-10.682196 59.813333-46.394292 98.533604-118.743053 98.533604-200.128625zM217.524437 821.853296v-422.342457l33.39914-28.39234c0.209896-0.178156 0.28976-0.438223 0.491465-0.623546 1.087366-0.998288 1.859376-2.221831 2.708176-3.43616 0.680884-0.975763 1.476443-1.85528 1.964836-2.915001 0.505799-1.087366 0.665525-2.292479 0.973715-3.476091 0.361432-1.401699 0.789416-2.748108 0.846753-4.190762 0.011263-0.280545 0.161774-0.517062 0.161774-0.800679v-188.128689c0-11.175708 9.097221-20.272929 20.27293-20.27293 11.175708 0 20.272929 9.097221 20.272929 20.27293v119.202777c0 0.989073 0.425936 1.835826 0.563137 2.787016 0.196586 1.411938 0.337882 2.784968 0.836514 4.143664 0.508871 1.383269 1.303406 2.544355 2.086679 3.766874 0.502728 0.793511 0.718767 1.693506 1.345385 2.428656 0.17918 0.209896 0.438223 0.290783 0.623546 0.492489 0.997264 1.085318 2.217736 1.85528 3.428992 2.702033 0.98293 0.683955 1.867567 1.484634 2.935479 1.977123 1.064841 0.494537 2.244357 0.648119 3.400323 0.954261 1.430368 0.374742 2.80647 0.808869 4.279841 0.865183 0.272353 0.011263 0.499656 0.155631 0.775081 0.15563 0.959381 0 1.780537-0.416721 2.704081-0.54573 1.448798-0.195562 2.85664-0.345049 4.250148-0.85904 1.363815-0.503752 2.506471-1.290096 3.714656-2.061081 0.801702-0.508871 1.713984-0.73003 2.457325-1.36484l176.606908-150.097493c7.562417-6.444334 18.580447-6.454573 26.182796-0.049146L805.739389 380.203433c-0.037884 0.51399-0.297951 0.951189-0.29795 1.475419v66.514662c-38.454061-23.544243-83.476347-37.369767-131.774042-37.369766-139.733726 0-253.412642 113.678916-253.412642 253.412642 0 69.277105 27.995073 132.099637 73.201658 177.89086H237.797367c-11.175708-0.001024-20.272929-9.098245-20.27293-20.273954z m243.276177-157.61793c0-117.371046 95.494713-212.866783 212.866783-212.866783S886.53418 546.863295 886.53418 664.235366s-95.494713 212.866783-212.866783 212.866783-212.866783-95.495736-212.866783-212.866783z" fill="#e47c7c"/>
</g>
</svg>